<svg width="118" height="117" viewBox="0 0 118 117" fill="none" xmlns="http://www.w3.org/2000/svg">
<circle cx="59.3182" cy="58.3896" r="58.3688" fill="#16202A"/>
<path d="M74.3049 59.115V84.203C69.8936 84.9107 65.9777 85.2646 62.5571 85.2646C53.4042 85.2646 46.5513 83.0943 41.9984 78.7537C37.4455 74.3896 35.1691 67.6074 35.1691 58.4073C35.1691 49.3252 37.4691 42.5784 42.0692 38.1671C46.6928 33.7322 53.4396 31.5147 62.3094 31.5147C64.3617 31.5147 66.2371 31.6209 67.9356 31.8332C69.6577 32.0455 71.368 32.3757 73.0664 32.824V43.1564C71.3444 42.7318 69.7403 42.4251 68.2541 42.2364C66.7679 42.0241 65.2464 41.9179 63.6894 41.9179C59.9622 41.9179 56.9545 42.4487 54.6662 43.5102C52.4016 44.5482 50.7267 46.2821 49.6416 48.7118C48.5564 51.1416 48.0139 54.4324 48.0139 58.5843C48.0139 62.5474 48.5092 65.732 49.5 68.1382C50.5144 70.5444 51.9888 72.2783 53.9232 73.3398C55.8575 74.4014 58.2873 74.9321 61.2125 74.9321C61.9909 74.9321 62.5689 74.9203 62.9463 74.8967V59.115H74.3049Z" fill="#F8FA72"/>
</svg>
