<svg width="16" height="26" viewBox="0 0 16 26" fill="none" xmlns="http://www.w3.org/2000/svg">
<path fill-rule="evenodd" clip-rule="evenodd" d="M6.32523 2.10144C7.56169 0.863799 9.27965 0.274414 11.2108 0.274414C12.0879 0.274414 12.9712 0.35223 13.6255 0.427782C13.955 0.46583 14.2317 0.503926 14.4271 0.532698C14.525 0.547098 14.6027 0.559201 14.6568 0.567846L14.7199 0.57809L14.7374 0.581005L14.7425 0.581864L14.7441 0.582138C14.7442 0.582154 14.7451 0.582306 14.5601 1.66606L14.7451 0.582306L15.6596 0.738374V6.44814H12.6733C11.9827 6.44814 11.7096 6.6526 11.5885 6.79253C11.4418 6.96224 11.3341 7.25371 11.3341 7.68555V9.39304H15.6661L14.6649 15.9173H11.3341V25.2744H9.13528V13.7185H12.7777L13.1041 11.5919H9.13528V7.68555C9.13528 6.93403 9.31752 6.05709 9.92535 5.35422C10.5589 4.62157 11.5051 4.24928 12.6733 4.24928H13.4607V2.62238C13.4321 2.61896 13.4029 2.61554 13.3733 2.61212C12.7622 2.54156 11.9708 2.47327 11.2108 2.47327C9.72398 2.47327 8.61589 2.91973 7.88079 3.65552C7.1468 4.39021 6.65812 5.54012 6.65812 7.19587V11.5919H2.85876V13.7185H6.65812V25.2744H4.45926V15.9173H0.659912V9.39304H4.45926V7.19587C4.45926 5.10128 5.08765 3.34018 6.32523 2.10144Z" fill="#F7F9FD"/>
</svg>
