<svg width="26" height="26" viewBox="0 0 26 26" fill="none" xmlns="http://www.w3.org/2000/svg">
<path d="M12.8396 6.36473C9.29164 6.36473 6.42988 9.22649 6.42988 12.7744C6.42988 16.3223 9.29164 19.1841 12.8396 19.1841C16.3875 19.1841 19.2492 16.3223 19.2492 12.7744C19.2492 9.22649 16.3875 6.36473 12.8396 6.36473ZM12.8396 16.9415C10.5468 16.9415 8.67243 15.0728 8.67243 12.7744C8.67243 10.4761 10.5412 8.60728 12.8396 8.60728C15.1379 8.60728 17.0067 10.4761 17.0067 12.7744C17.0067 15.0728 15.1323 16.9415 12.8396 16.9415ZM21.0065 6.10254C21.0065 6.93374 20.3371 7.59758 19.5114 7.59758C18.6802 7.59758 18.0164 6.92816 18.0164 6.10254C18.0164 5.27692 18.6858 4.60751 19.5114 4.60751C20.3371 4.60751 21.0065 5.27692 21.0065 6.10254ZM25.2517 7.61989C25.1569 5.61721 24.6994 3.84325 23.2323 2.38169C21.7707 0.920124 19.9968 0.462688 17.9941 0.362275C15.93 0.245127 9.7435 0.245127 7.67946 0.362275C5.68236 0.45711 3.9084 0.914546 2.44126 2.37611C0.974116 3.83767 0.522258 5.61163 0.421846 7.61431C0.304697 9.67835 0.304697 15.8649 0.421846 17.9289C0.51668 19.9316 0.974116 21.7056 2.44126 23.1671C3.9084 24.6287 5.67678 25.0861 7.67946 25.1866C9.7435 25.3037 15.93 25.3037 17.9941 25.1866C19.9968 25.0917 21.7707 24.6343 23.2323 23.1671C24.6939 21.7056 25.1513 19.9316 25.2517 17.9289C25.3689 15.8649 25.3689 9.68393 25.2517 7.61989ZM22.5852 20.1436C22.1501 21.237 21.3077 22.0793 20.2087 22.52C18.5631 23.1727 14.6582 23.0221 12.8396 23.0221C11.021 23.0221 7.11045 23.1671 5.47038 22.52C4.37699 22.0849 3.53464 21.2426 3.09394 20.1436C2.44126 18.4979 2.59188 14.593 2.59188 12.7744C2.59188 10.9558 2.44684 7.04531 3.09394 5.40523C3.52906 4.31185 4.37142 3.46949 5.47038 3.02879C7.11603 2.37611 11.021 2.52673 12.8396 2.52673C14.6582 2.52673 18.5687 2.38169 20.2087 3.02879C21.3021 3.46392 22.1445 4.30627 22.5852 5.40523C23.2379 7.05088 23.0872 10.9558 23.0872 12.7744C23.0872 14.593 23.2379 18.5035 22.5852 20.1436Z" fill="#F7F9FD"/>
</svg>
