<svg width="232" height="50" viewBox="0 0 232 50" fill="none" xmlns="http://www.w3.org/2000/svg">
<path d="M27.034 20.7627V38.0732C23.9902 38.5616 21.2883 38.8057 18.9281 38.8057C12.6126 38.8057 7.88416 37.3082 4.74271 34.3133C1.60125 31.302 0.0305176 26.6224 0.0305176 20.2744C0.0305176 14.0077 1.61752 9.3525 4.79154 6.30871C7.98183 3.24863 12.637 1.71859 18.7572 1.71859C20.1733 1.71859 21.4673 1.79184 22.6393 1.93834C23.8275 2.08483 25.0076 2.31271 26.1795 2.62197V9.75129C24.9913 9.45831 23.8844 9.2467 22.859 9.11649C21.8335 8.96999 20.7837 8.89675 19.7094 8.89675C17.1376 8.89675 15.0623 9.26298 13.4834 9.99545C11.9209 10.7116 10.7652 11.908 10.0164 13.5845C9.26771 15.261 8.89334 17.5317 8.89334 20.3964C8.89334 23.131 9.23516 25.3284 9.91879 26.9886C10.6187 28.6489 11.636 29.8452 12.9707 30.5777C14.3054 31.3102 15.982 31.6764 18.0003 31.6764C18.5375 31.6764 18.9362 31.6683 19.1967 31.652V20.7627H27.034Z" fill="#F8FA72"/>
<path d="M46.1723 11.558H54.4248L44.2191 49.0846H36.0643L39.0186 38.3418H36.3329L29.0571 11.558H37.6513L41.8752 30.2847L46.1723 11.558Z" fill="#F8FA72"/>
<path d="M83.6352 11.1186C86.0117 11.1186 87.8998 11.8999 89.2996 13.4624C90.6994 15.0088 91.3994 17.4991 91.3994 20.9336V38.3418H83.0493V21.3975C83.0493 19.4931 82.268 18.5409 80.7054 18.5409C80.2659 18.5409 79.7939 18.6385 79.2893 18.8339C78.801 19.0292 78.3696 19.314 77.9953 19.6884C78.0115 19.8512 78.0197 20.0953 78.0197 20.4209V38.3418H69.8405V21.3975C69.8405 20.3558 69.6452 19.6233 69.2545 19.2001C68.8639 18.7606 68.3105 18.5409 67.5943 18.5409C67.0897 18.5409 66.5607 18.6711 66.0073 18.9315C65.4701 19.1919 65.0469 19.55 64.7376 20.0058V38.3418H56.3876V11.558H63.3216L63.9319 14.3414H64.2982C65.1283 13.2508 66.0805 12.4451 67.1548 11.9243C68.2453 11.3871 69.4905 11.1186 70.8904 11.1186C72.1762 11.1186 73.3238 11.3871 74.3329 11.9243C75.3421 12.4614 76.156 13.2997 76.7745 14.4391C77.6209 13.3648 78.6382 12.5428 79.8264 11.9731C81.0309 11.4034 82.3005 11.1186 83.6352 11.1186Z" fill="#F8FA72"/>
<path d="M103.4 38.8057C102.082 38.8057 100.682 38.6836 99.2005 38.4395C97.7356 38.2116 96.4008 37.8779 95.1963 37.4384V32.3112C98.0611 33.239 100.771 33.7029 103.327 33.7029C105.557 33.7029 107.217 33.2715 108.307 32.4089C109.398 31.5462 109.943 30.2847 109.943 28.6245C109.943 27.6967 109.772 26.9154 109.431 26.2806C109.105 25.6295 108.552 25.0598 107.77 24.5715C107.005 24.0669 105.947 23.5867 104.596 23.131L102.423 22.3985C97.1008 20.5755 94.4395 17.2062 94.4395 12.2905C94.4395 10.0931 94.9196 8.20498 95.88 6.62611C96.8403 5.04724 98.2727 3.84274 100.177 3.01262C102.098 2.16621 104.458 1.74301 107.258 1.74301C108.527 1.74301 109.781 1.8244 111.018 1.98717C112.271 2.14994 113.37 2.37781 114.314 2.6708V7.77363C112.344 7.15511 110.163 6.84585 107.77 6.84585C102.92 6.84585 100.495 8.5061 100.495 11.8266C100.495 12.7218 100.641 13.4706 100.934 14.0728C101.243 14.6751 101.748 15.2122 102.448 15.6843C103.164 16.1563 104.149 16.6039 105.402 17.0271L107.575 17.7596C110.342 18.6874 112.434 19.9814 113.85 21.6416C115.282 23.2856 115.998 25.4342 115.998 28.0873C115.998 30.3173 115.502 32.2379 114.509 33.8494C113.532 35.4445 112.1 36.6734 110.212 37.5361C108.324 38.3825 106.053 38.8057 103.4 38.8057Z" fill="#F8FA72"/>
<path d="M130.844 33.7029C131.446 33.7029 132.292 33.6052 133.383 33.4099V38.3418C132.097 38.6511 130.762 38.8057 129.379 38.8057C126.595 38.8057 124.479 38.0733 123.031 36.6083C121.582 35.1271 120.858 32.7832 120.858 29.5767V16.4167H116.78V11.7045H120.858L121.908 2.20691H126.766V11.7045H133.163V16.4167H126.766V28.8686C126.766 30.0894 126.905 31.0497 127.181 31.7496C127.458 32.4496 127.889 32.9541 128.475 33.2634C129.061 33.5564 129.851 33.7029 130.844 33.7029Z" fill="#F8FA72"/>
<path d="M144.204 11.2895C146.548 11.2895 148.453 11.615 149.918 12.2661C151.382 12.9009 152.473 13.9589 153.189 15.4401C153.905 16.905 154.264 18.8827 154.264 21.3731V38.3418H149.429L148.99 35.4852H148.697C148.046 36.6246 147.191 37.4629 146.133 38C145.075 38.5371 143.863 38.8057 142.495 38.8057C141.047 38.8057 139.769 38.5046 138.662 37.9023C137.555 37.3001 136.693 36.4374 136.074 35.3143C135.472 34.1749 135.171 32.8402 135.171 31.3102C135.171 28.7872 135.927 26.8421 137.441 25.4749C138.955 24.0913 141.348 23.2775 144.619 23.0333L148.526 22.6671V21.1045C148.526 19.8349 148.339 18.842 147.964 18.1258C147.606 17.3933 147.037 16.8725 146.255 16.5632C145.474 16.2539 144.432 16.0993 143.13 16.0993C142.186 16.0993 141.169 16.1888 140.078 16.3679C138.988 16.5307 137.93 16.7748 136.904 17.1003V12.2905C137.946 11.9812 139.126 11.7371 140.444 11.558C141.763 11.379 143.016 11.2895 144.204 11.2895ZM144.448 34.3133C145.197 34.3133 145.922 34.1424 146.621 33.8005C147.338 33.4587 147.972 32.889 148.526 32.0915V26.305L145.23 26.6224C142.398 26.8665 140.981 28.2013 140.981 30.6265C140.981 31.8636 141.283 32.7914 141.885 33.4099C142.487 34.0121 143.342 34.3133 144.448 34.3133Z" fill="#F8FA72"/>
<path d="M170.805 33.7029C171.407 33.7029 172.254 33.6052 173.344 33.4099V38.3418C172.058 38.6511 170.724 38.8057 169.34 38.8057C166.557 38.8057 164.441 38.0733 162.992 36.6083C161.543 35.1271 160.819 32.7832 160.819 29.5767V16.4167H156.742V11.7045H160.819L161.869 2.20691H166.728V11.7045H173.124V16.4167H166.728V28.8686C166.728 30.0894 166.866 31.0497 167.143 31.7496C167.419 32.4496 167.851 32.9541 168.437 33.2634C169.023 33.5564 169.812 33.7029 170.805 33.7029Z" fill="#F8FA72"/>
<path d="M176.593 38.3418V11.7045H182.526V38.3418H176.593ZM179.548 7.13883C178.294 7.13883 177.342 6.83771 176.691 6.23546C176.056 5.63321 175.739 4.77867 175.739 3.67183C175.739 2.565 176.056 1.71046 176.691 1.10821C177.342 0.489683 178.294 0.18042 179.548 0.18042C180.801 0.18042 181.753 0.489683 182.404 1.10821C183.055 1.72673 183.381 2.58128 183.381 3.67183C183.381 4.77867 183.055 5.63321 182.404 6.23546C181.769 6.83771 180.817 7.13883 179.548 7.13883Z" fill="#F8FA72"/>
<path d="M197.346 38.8301C193.912 38.8301 191.275 37.7233 189.436 35.5096C187.596 33.2797 186.677 29.8208 186.677 25.133C186.677 15.904 190.233 11.2895 197.346 11.2895C200.764 11.2895 203.393 12.4207 205.232 14.6832C207.088 16.9457 208.016 20.4127 208.016 25.0842C208.016 34.2482 204.459 38.8301 197.346 38.8301ZM197.346 34.3133C198.372 34.3133 199.21 34.0528 199.861 33.532C200.528 33.0111 201.041 32.0833 201.399 30.7486C201.757 29.4139 201.936 27.5583 201.936 25.1819C201.936 22.7403 201.757 20.8359 201.399 19.4687C201.041 18.1014 200.528 17.1492 199.861 16.612C199.194 16.0749 198.355 15.8063 197.346 15.8063C196.321 15.8063 195.474 16.0749 194.807 16.612C194.14 17.1329 193.627 18.0688 193.269 19.4198C192.911 20.7708 192.732 22.6427 192.732 25.0354C192.732 27.4607 192.911 29.3488 193.269 30.6998C193.627 32.0508 194.131 32.9948 194.783 33.532C195.45 34.0528 196.304 34.3133 197.346 34.3133Z" fill="#F8FA72"/>
<path d="M212.12 11.7045H217.052L217.491 14.5611H217.809C218.655 13.5031 219.648 12.6974 220.787 12.144C221.943 11.5743 223.213 11.2895 224.596 11.2895C226.859 11.2895 228.649 12.0057 229.968 13.438C231.302 14.8541 231.97 17.141 231.97 20.2988V38.3418H226.061V20.7383C226.061 19.2408 225.76 18.1746 225.158 17.5398C224.555 16.905 223.701 16.5876 222.594 16.5876C221.748 16.5876 220.901 16.7992 220.055 17.2224C219.208 17.6294 218.533 18.256 218.028 19.1024V38.3418H212.12V11.7045Z" fill="#F8FA72"/>
<path fill-rule="evenodd" clip-rule="evenodd" d="M51.0677 45.6533C51.0677 44.5296 51.9787 43.6187 53.1024 43.6187H214.631C215.755 43.6187 216.666 44.5296 216.666 45.6533C216.666 46.777 215.755 47.6879 214.631 47.6879H53.1024C51.9787 47.6879 51.0677 46.777 51.0677 45.6533Z" fill="#F7F9FD"/>
</svg>
