<svg width="297" height="193" viewBox="0 0 297 193" fill="none" xmlns="http://www.w3.org/2000/svg">
<path d="M215.325 0C227.623 0 237.6 9.97012 237.6 22.2692C237.6 29.2748 234.305 35.8627 228.69 40.0846L222.24 44.9096C191.333 47.8788 165.438 68.1067 154.347 95.8505L127.71 115.8C122.42 119.744 115.18 119.744 109.89 115.8L8.91 40.0846C3.30088 35.8627 0 29.2748 0 22.2692C0 9.97012 9.9727 0 22.275 0H215.325ZM136.62 127.677L148.871 118.491C148.639 121.043 148.5 123.594 148.5 126.192C148.5 145.91 155.507 164.05 167.155 178.154H29.7C13.2954 178.154 0 164.839 0 148.462V51.9615L100.98 127.677C111.561 135.61 126.039 135.61 136.62 127.677ZM297 126.192C297 163.076 267.068 193 230.175 193C193.282 193 163.35 163.076 163.35 126.192C163.35 89.3089 193.282 59.3846 230.175 59.3846C267.068 59.3846 297 89.3089 297 126.192ZM250.919 106.104L222.75 134.265L209.431 120.95C206.554 118.027 201.821 118.027 198.944 120.95C196.02 123.826 196.02 128.558 198.944 131.435L217.506 149.993C220.383 152.915 225.117 152.915 227.994 149.993L261.406 116.589C264.33 113.712 264.33 108.98 261.406 106.104C258.529 103.181 253.796 103.181 250.919 106.104Z" fill="#F8FA71"/>
</svg>
